<svg width="80" height="80" viewBox="0 0 80 80" fill="none" xmlns="http://www.w3.org/2000/svg">
<path d="M17.5 66.25H27.5C27.7703 66.2481 28.0325 66.1574 28.2462 65.9918C28.4598 65.8262 28.6131 65.595 28.6825 65.3338L37.1975 67.4588C37.2962 67.485 37.3978 67.4989 37.5 67.5H48.6175C49.5214 67.5113 50.4005 67.2045 51.1011 66.6333C51.8017 66.062 52.2791 65.2627 52.45 64.375C52.5929 63.5147 52.4339 62.6315 52 61.875C52.4437 61.6018 52.8246 61.2379 53.1176 60.807C53.4106 60.3761 53.6091 59.8881 53.7 59.375C53.8429 58.5147 53.6839 57.6315 53.25 56.875C53.6937 56.6018 54.0746 56.2379 54.3676 55.807C54.6606 55.3761 54.8591 54.8881 54.95 54.375C55.0886 53.5298 54.9366 52.6626 54.5188 51.915C55.1394 51.5174 55.6296 50.9463 55.9285 50.2725C56.2274 49.5987 56.3218 48.852 56.2 48.125C56.0289 47.2373 55.5511 46.4379 54.8504 45.8666C54.1496 45.2954 53.2703 44.9887 52.3663 45H42.985L43.1625 44.4625C43.5524 43.2976 43.7508 42.0772 43.75 40.8488V39.64C43.7613 38.7361 43.4545 37.857 42.8833 37.1564C42.312 36.4559 41.5127 35.9784 40.625 35.8075C40.0872 35.7166 39.536 35.7441 39.0099 35.8881C38.4838 36.0321 37.9955 36.2892 37.5789 36.6413C37.1624 36.9935 36.8277 37.4323 36.5982 37.9271C36.3686 38.4219 36.2498 38.9608 36.25 39.5063V40C36.25 41.49 35.55 42.25 34.4925 43.3863C34.215 43.6863 33.9288 43.9963 33.6413 44.3313C33.4546 44.5447 33.2238 44.7151 32.9648 44.8306C32.7058 44.946 32.4248 45.0038 32.1413 45H28.75C28.75 44.6685 28.6183 44.3506 28.3839 44.1161C28.1495 43.8817 27.8315 43.75 27.5 43.75H17.5C17.1685 43.75 16.8505 43.8817 16.6161 44.1161C16.3817 44.3506 16.25 44.6685 16.25 45V65C16.25 65.3315 16.3817 65.6495 16.6161 65.8839C16.8505 66.1183 17.1685 66.25 17.5 66.25ZM28.75 47.5H32.1375C32.7839 47.5046 33.4236 47.3686 34.0122 47.1013C34.6007 46.8341 35.1242 46.4421 35.5463 45.9525C35.8075 45.645 36.0713 45.3613 36.3263 45.085C37.0638 44.4544 37.6606 43.6759 38.0781 42.7999C38.4956 41.9239 38.7245 40.9701 38.75 40V39.5063C38.7499 39.3235 38.7899 39.143 38.8671 38.9774C38.9444 38.8118 39.0569 38.6652 39.197 38.5478C39.337 38.4304 39.5011 38.3452 39.6776 38.298C39.8541 38.2509 40.0389 38.243 40.2188 38.275C40.5215 38.3491 40.7894 38.5253 40.9773 38.774C41.1652 39.0227 41.2615 39.3286 41.25 39.64V40.8488C41.2505 41.8085 41.096 42.762 40.7925 43.6725L40.065 45.855C40.0024 46.0428 39.9854 46.2428 40.0152 46.4385C40.0451 46.6342 40.121 46.82 40.2367 46.9806C40.3524 47.1413 40.5046 47.2721 40.6808 47.3624C40.8569 47.4527 41.052 47.4999 41.25 47.5H52.3663C52.6777 47.4885 52.9836 47.5848 53.2323 47.7727C53.481 47.9606 53.6572 48.2285 53.7313 48.5313C53.7632 48.7112 53.7554 48.8959 53.7082 49.0724C53.6611 49.249 53.5759 49.413 53.4585 49.553C53.3411 49.6931 53.1944 49.8057 53.0288 49.8829C52.8632 49.9601 52.6827 50.0001 52.5 50H47.5C47.1685 50 46.8505 50.1317 46.6161 50.3661C46.3817 50.6006 46.25 50.9185 46.25 51.25C46.25 51.5815 46.3817 51.8995 46.6161 52.1339C46.8505 52.3683 47.1685 52.5 47.5 52.5H51.25C51.4327 52.4999 51.6132 52.5399 51.7788 52.6171C51.9444 52.6944 52.0911 52.807 52.2085 52.947C52.3259 53.087 52.4111 53.2511 52.4582 53.4276C52.5054 53.6041 52.5132 53.7889 52.4813 53.9688C52.4075 54.2714 52.2315 54.5393 51.983 54.7272C51.7345 54.9151 51.4288 55.0115 51.1175 55H46.25C45.9185 55 45.6005 55.1317 45.3661 55.3661C45.1317 55.6006 45 55.9185 45 56.25C45 56.5815 45.1317 56.8995 45.3661 57.1339C45.6005 57.3683 45.9185 57.5 46.25 57.5H50C50.1827 57.4999 50.3632 57.5399 50.5288 57.6171C50.6944 57.6944 50.8411 57.807 50.9585 57.947C51.0759 58.087 51.1611 58.2511 51.2082 58.4276C51.2554 58.6041 51.2632 58.7889 51.2313 58.9688C51.1575 59.2714 50.9815 59.5393 50.733 59.7272C50.4845 59.9151 50.1788 60.0115 49.8675 60H45C44.6685 60 44.3505 60.1317 44.1161 60.3661C43.8817 60.6006 43.75 60.9185 43.75 61.25C43.75 61.5815 43.8817 61.8995 44.1161 62.1339C44.3505 62.3683 44.6685 62.5 45 62.5H48.75C48.9327 62.4999 49.1132 62.5399 49.2788 62.6171C49.4444 62.6944 49.5911 62.807 49.7085 62.947C49.8259 63.087 49.9111 63.2511 49.9582 63.4276C50.0054 63.6041 50.0132 63.7889 49.9813 63.9688C49.9075 64.2714 49.7315 64.5393 49.483 64.7272C49.2345 64.9151 48.9288 65.0115 48.6175 65H37.6538L28.75 62.7738V47.5ZM18.75 46.25H26.25V63.75H18.75V46.25Z" fill="#302F2F"/>
<path d="M35.0712 27.045L34.31 30.855C34.266 31.0757 34.2824 31.3043 34.3575 31.5165C34.4327 31.7287 34.5637 31.9166 34.7368 32.0605C34.9099 32.2044 35.1186 32.2989 35.3409 32.334C35.5633 32.3691 35.791 32.3435 36 32.26L38.75 31.16V33.75H41.25V31.16L44 32.26C44.209 32.3435 44.4367 32.3691 44.6591 32.334C44.8814 32.2989 45.0901 32.2044 45.2632 32.0605C45.4363 31.9166 45.5673 31.7287 45.6425 31.5165C45.7176 31.3043 45.734 31.0757 45.69 30.855L44.9287 27.045L47.1337 24.84C47.2901 24.6835 47.4021 24.4884 47.4584 24.2745C47.5146 24.0606 47.5132 23.8356 47.4541 23.6224C47.395 23.4093 47.2804 23.2157 47.122 23.0613C46.9636 22.9069 46.7671 22.7973 46.5525 22.7437L43.4725 21.9737L41.0625 18.0912C40.9425 17.921 40.7833 17.7821 40.5984 17.6862C40.4135 17.5903 40.2083 17.5403 40 17.5403C39.7917 17.5403 39.5865 17.5903 39.4016 17.6862C39.2167 17.7821 39.0575 17.921 38.9375 18.0912L36.5275 21.9737L33.4475 22.7437C33.2329 22.7973 33.0364 22.9069 32.878 23.0613C32.7196 23.2157 32.605 23.4093 32.5459 23.6224C32.4868 23.8356 32.4854 24.0606 32.5416 24.2745C32.5979 24.4884 32.7099 24.6835 32.8662 24.84L35.0712 27.045ZM37.625 24.2762C37.9403 24.1973 38.2124 23.9987 38.3837 23.7225L40 21.125L41.6162 23.7275C41.7876 24.0037 42.0597 24.2023 42.375 24.2812L43.805 24.6387L42.6875 25.7562C42.5427 25.9014 42.4359 26.0799 42.3764 26.2761C42.3169 26.4723 42.3065 26.6801 42.3462 26.8812L42.7862 29.0837L40.4637 28.155C40.166 28.036 39.834 28.036 39.5362 28.155L37.2137 29.0837L37.6537 26.8812C37.6935 26.6801 37.6831 26.4723 37.6236 26.2761C37.5641 26.0799 37.4573 25.9014 37.3125 25.7562L36.195 24.6387L37.625 24.2762Z" fill="#302F2F"/>
<path d="M30 21.25H27.5V23.75H30V21.25Z" fill="#302F2F"/>
<path d="M52.5 21.25H50V23.75H52.5V21.25Z" fill="#302F2F"/>
<path d="M41.25 12.5H38.75V15H41.25V12.5Z" fill="#302F2F"/>
<path d="M32.5 32.5H30V35H32.5V32.5Z" fill="#302F2F"/>
<path d="M50 32.5H47.5V35H50V32.5Z" fill="#302F2F"/>
</svg>
