<svg width="38" height="38" viewBox="0 0 38 38" fill="none" xmlns="http://www.w3.org/2000/svg">
<rect width="38" height="38" rx="4" fill="white"/>
<path d="M16.2027 3.33555C10.2811 4.43333 5.46775 8.59222 3.71552 14.1444C3.1033 16.0761 3.0083 16.7517 3.0083 19.0528C3.0083 20.8683 3.03997 21.3117 3.25108 22.2617C3.71552 24.3306 4.50719 26.1883 5.68941 27.9722C6.47052 29.1439 8.30719 31.0439 9.53163 31.92C11.2944 33.1972 13.7327 34.2528 15.9072 34.6961C17.3322 34.9811 20.6889 34.96 22.135 34.6433C28.1411 33.345 32.87 28.8272 34.3583 22.9794C35.2661 19.3906 34.8861 15.5167 33.3027 12.1917C31.1811 7.75833 27.2439 4.63388 22.2827 3.46221C21.0583 3.17721 17.4589 3.09277 16.2027 3.33555ZM24.2039 6.59722C26.8005 7.1461 28.7005 9.48944 28.7111 12.1389C28.7111 13.9755 27.8244 15.7278 26.3572 16.7939L25.9666 17.0789L26.315 17.3006C26.7161 17.5433 27.5605 18.4089 27.7505 18.7678C27.8244 18.905 27.8561 19.095 27.8139 19.2006C27.7505 19.4222 26.7794 20.4567 26.3361 20.7733L26.0194 21.0056L26.3361 21.2378C26.98 21.7022 27.7611 22.6311 28.12 23.37C29.6611 26.5156 28.0566 30.2733 24.7316 31.3394C23.8872 31.6139 24.4889 31.5928 15.7277 31.5717L9.23608 31.5611L14.0916 26.7056L18.9472 21.85L15.2527 21.8394C13.2155 21.8289 11.4844 21.8078 11.4 21.7972C11.3155 21.7867 10.7877 21.7656 10.2389 21.755L9.23608 21.7444L10.6083 20.3722L11.9805 19L10.6083 17.6278L9.23608 16.2555H14.0916H18.9472L14.0916 11.4L9.24663 6.54444L11.1889 6.51277C12.2655 6.50222 15.4744 6.4811 18.3139 6.45999C22.4622 6.44944 23.6233 6.47055 24.2039 6.59722Z" fill="black"/>
</svg>
