<svg width="59" height="59" viewBox="0 0 59 59" fill="none" xmlns="http://www.w3.org/2000/svg">
<path d="M25.8125 19.0565V32.5705C25.8125 34.028 27.4238 34.9091 28.6509 34.1229L40.0042 26.8482C40.7592 26.3646 40.7589 25.2618 40.0042 24.7783L28.6509 17.5041C27.4237 16.7178 25.8125 17.5991 25.8125 19.0565ZM19.0521 7.375C14.6395 7.375 11.0625 10.952 11.0625 15.3646V37.4896C11.0625 41.902 14.6396 45.4792 19.0521 45.4792H44.8646C49.277 45.4792 52.8542 41.902 52.8542 37.4896V15.3646C52.8542 10.952 49.277 7.375 44.8646 7.375H19.0521ZM14.75 15.3646C14.75 12.9886 16.6761 11.0625 19.0521 11.0625H44.8646C47.2406 11.0625 49.1667 12.9886 49.1667 15.3646V37.4896C49.1667 39.8656 47.2406 41.7917 44.8646 41.7917H19.0521C16.6761 41.7917 14.75 39.8656 14.75 37.4896V15.3646ZM18.4639 47.9375C19.8837 50.1552 22.3689 51.625 25.1975 51.625H46.0933C53.2212 51.625 58.9995 45.8467 58.9995 38.7187V21.5104C58.9995 18.6818 57.5297 16.1966 55.312 14.7768V38.7187C55.312 43.8102 51.1847 47.9375 46.0933 47.9375H18.4639Z" fill="#302F2F"/>
</svg>
