<svg width="50" height="50" viewBox="0 0 50 50" fill="none" xmlns="http://www.w3.org/2000/svg">
<path d="M8.25712 49.511C6.59912 49.511 5.25012 48.162 5.25012 46.504V26.1345H44.7301V46.504C44.7301 48.162 43.3811 49.511 41.7231 49.511H8.25712Z" fill="#302F2F"/>
<path d="M44.4796 26.3845V29.1415V41.98V46.5045C44.4796 48.0245 43.2431 49.2615 41.7226 49.2615H8.25712C6.73712 49.2615 5.50012 48.025 5.50012 46.5045V39.6995V29.1415V26.3845H8.25712H41.7231H44.4796ZM44.9796 25.8845H41.7226H8.25712H5.00012V29.1415V39.6995V46.504C5.00012 48.3025 6.45812 49.761 8.25712 49.761H41.7231C43.5216 49.761 44.9801 48.303 44.9801 46.504V41.9795V29.1415V25.8845H44.9796Z" fill="#302F2F"/>
<path d="M7.00053 26.875C6.83553 26.875 6.69003 26.7635 6.64653 26.6045L5.27903 21.603C5.22553 21.4075 5.34153 21.2055 5.53703 21.152L41.652 11.279C41.684 11.27 41.7165 11.266 41.749 11.266C41.914 11.266 42.0595 11.3775 42.103 11.537L43.4705 16.5385C43.524 16.734 43.4085 16.9365 43.213 16.9895L7.09803 26.8625C7.06553 26.8705 7.03303 26.875 7.00053 26.875Z" fill="#3D3838"/>
<path d="M41.7491 11.516C41.792 11.516 41.8456 11.543 41.8621 11.6025L43.2295 16.604C43.2401 16.6425 43.2291 16.674 43.2181 16.693C43.2071 16.7125 43.1861 16.7375 43.1471 16.748L7.03205 26.621C7.02155 26.624 7.01105 26.6255 7.00055 26.6255C6.95755 26.6255 6.90405 26.5985 6.88755 26.539L5.52005 21.5375C5.50955 21.499 5.52055 21.4675 5.53155 21.4485C5.54255 21.429 5.56355 21.404 5.60255 21.3935L41.7176 11.5205C41.7281 11.517 41.7385 11.516 41.7491 11.516ZM41.7491 11.016C41.695 11.016 41.6406 11.023 41.5861 11.038L5.47055 20.9105C5.14155 21.0005 4.94805 21.34 5.03805 21.669L6.40555 26.6705C6.48055 26.945 6.72905 27.125 7.00055 27.125C7.05455 27.125 7.10905 27.118 7.16355 27.103L43.2791 17.2305C43.6081 17.1405 43.8016 16.801 43.7116 16.472L42.3441 11.4705C42.2691 11.196 42.0205 11.016 41.7491 11.016Z" fill="#302F2F"/>
<path d="M44.7301 26.1345H5.25061V30.6065H44.7301V26.1345Z" fill="#302F2F"/>
<path d="M44.4796 26.3845V30.3565H5.50061V26.3845H44.4796ZM44.9796 25.8845H5.00061V30.8565H44.9801V25.8845H44.9796Z" fill="#302F2F"/>
<path d="M5.25061 30.6065V26.1345H15.7841L9.91811 30.6065H5.25061Z" fill="#302F2F"/>
<path d="M15.0441 26.3845L9.83411 30.356H5.50061V26.3845H15.0441ZM16.5246 25.8845H5.00061V30.856H10.0371L10.0196 30.843L16.5246 25.8845Z" fill="#302F2F"/>
<path d="M19.3151 30.6065L25.1816 26.1345H32.3696L26.5031 30.6065H19.3151Z" fill="#302F2F"/>
<path d="M31.6291 26.3845L26.4191 30.356H20.0556L25.2656 26.3845H31.6291ZM33.1101 25.8845H25.0971L18.5751 30.8565H26.6226L26.6051 30.8435L33.1101 25.8845Z" fill="#302F2F"/>
<path d="M35.9006 30.6065L41.7666 26.1345H44.7301V30.6065H35.9006Z" fill="#302F2F"/>
<path d="M44.4797 26.3845V30.356H36.6412L41.8512 26.3845H44.4797ZM44.9797 25.8845H41.6822L35.1602 30.856H44.9797V25.8845Z" fill="#302F2F"/>
<path d="M17.6625 17.837L24.281 16.0275L30.2065 20.545L23.588 22.354L17.6625 17.837Z" fill="#302F2F"/>
<path d="M24.2275 16.3015L29.6525 20.437L23.6415 22.0805L18.2165 17.945L24.2275 16.3015ZM24.334 15.754L17.1085 17.729L23.5345 22.6275L30.76 20.6525L24.334 15.754Z" fill="#302F2F"/>
<path d="M6.95212 26.891C6.81812 26.891 6.70012 26.8005 6.66462 26.671L5.26112 21.5365C5.21762 21.378 5.31162 21.2135 5.47012 21.17L10.7456 19.7275L16.6711 24.245L7.03112 26.8805C7.00562 26.8875 6.97912 26.891 6.95212 26.891C6.95262 26.891 6.95262 26.891 6.95212 26.891Z" fill="#302F2F"/>
<path d="M10.6926 20.0015L16.1176 24.137L6.95207 26.641C6.93957 26.641 6.91357 26.6335 6.90557 26.605L5.50207 21.4705C5.49607 21.4485 5.51407 21.417 5.53607 21.411L10.6926 20.0015ZM10.7991 19.454L5.40407 20.929C5.11207 21.009 4.93957 21.3105 5.01957 21.6025L6.42307 26.737C6.48957 26.981 6.71057 27.141 6.95157 27.141C6.99957 27.141 7.04807 27.1345 7.09658 27.1215L17.2246 24.353L10.7991 19.454Z" fill="#302F2F"/>
<path d="M31.1975 14.137L41.7185 11.261C41.7445 11.254 41.771 11.2505 41.7975 11.2505C41.9315 11.2505 42.0495 11.341 42.085 11.4705L43.4885 16.605C43.5095 16.682 43.4995 16.7625 43.46 16.8315C43.4205 16.901 43.3565 16.9505 43.2795 16.9715L37.1235 18.6545L31.1975 14.137Z" fill="#302F2F"/>
<path d="M41.7975 11.5C41.81 11.5 41.836 11.5075 41.844 11.536L43.2475 16.6705C43.2535 16.6925 43.2355 16.724 43.2135 16.73L37.1765 18.3805L31.7515 14.245L41.784 11.5025C41.7885 11.5005 41.793 11.5 41.7975 11.5ZM41.7975 11C41.7495 11 41.701 11.0065 41.6525 11.0195L30.644 14.029L37.07 18.9275L43.345 17.212C43.637 17.132 43.8095 16.8305 43.7295 16.5385L42.326 11.404C42.2595 11.1605 42.0385 11 41.7975 11Z" fill="#302F2F"/>
<path d="M5.20112 21.0675L11.4906 25.8625C11.5561 25.9125 11.5561 26.0115 11.4906 26.0615L5.20112 30.8565C5.11862 30.9195 5.00012 30.8605 5.00012 30.757V21.167C5.00062 21.0635 5.11912 21.0045 5.20112 21.0675Z" fill="#303030"/>
<path d="M9.92355 37.198H39.9895C40.285 37.198 40.5245 36.9585 40.5245 36.663C40.5245 36.3675 40.285 36.128 39.9895 36.128H9.92355C9.62805 36.128 9.38855 36.3675 9.38855 36.663C9.38855 36.9585 9.62805 37.198 9.92355 37.198Z" fill="#454444"/>
<path d="M9.90707 41.852H39.9731C40.2686 41.852 40.5081 41.6125 40.5081 41.317C40.5081 41.0215 40.2686 40.782 39.9731 40.782H9.90707C9.61157 40.782 9.37207 41.0215 9.37207 41.317C9.37207 41.6125 9.61157 41.852 9.90707 41.852Z" fill="#454444"/>
<path d="M40.006 45.4365H9.94052C9.64502 45.4365 9.40552 45.676 9.40552 45.9715C9.40552 46.267 9.64502 46.5065 9.94052 46.5065H40.0065C40.302 46.5065 40.5415 46.267 40.5415 45.9715C40.541 45.676 40.3015 45.4365 40.006 45.4365Z" fill="#454444"/>
</svg>
