<svg width="68" height="68" viewBox="0 0 68 68" fill="none" xmlns="http://www.w3.org/2000/svg">
<path d="M0 53.1237V53.0973V27.6276C0 27.041 0.475889 26.5651 1.06244 26.5651H1.089H54.1839C54.7703 26.5651 55.2463 27.041 55.2463 27.6276V27.6563V53.126C55.2463 53.7126 54.7704 54.1883 54.1839 54.1883H54.1574H1.06244C0.475889 54.1883 0 53.7103 0 53.1237ZM2.12489 28.6901V52.0615H53.1216V28.6901H2.12489Z" fill="#302F2F"/>
<path d="M5.31434 24.4404C4.72778 24.4404 4.25189 23.9646 4.25189 23.378C4.25189 22.7914 4.72778 22.3156 5.31434 22.3156H58.4359C59.0224 22.3156 59.4985 22.7914 59.4985 23.378V23.4046V48.8742C59.4985 49.4608 59.0226 49.9367 58.4359 49.9367C57.8516 49.9367 57.3735 49.461 57.3735 48.8742V24.4404H5.31434Z" fill="#302F2F"/>
<path d="M9.56409 20.1885C8.97754 20.1885 8.50165 19.7126 8.50165 19.126C8.50165 18.5395 8.97754 18.0636 9.56409 18.0636H62.6856C63.2721 18.0636 63.7481 18.5395 63.7481 19.126V19.1548V44.6222C63.7481 45.2088 63.2722 45.6848 62.6856 45.6848C62.0991 45.6848 61.6232 45.2089 61.6232 44.6222V20.1885H9.56409Z" fill="#302F2F"/>
<path d="M13.816 15.9366C13.2294 15.9366 12.7535 15.4607 12.7535 14.8741C12.7535 14.2876 13.2294 13.8117 13.816 13.8117H66.9375C67.524 13.8117 68 14.2876 68 14.8741L67.9955 14.9826L67.9889 40.377C67.9889 40.9612 67.5151 41.4349 66.9309 41.4349C66.3466 41.4349 65.873 40.961 65.873 40.377L65.8796 15.9366H13.816V15.9366Z" fill="#302F2F"/>
<path d="M9.55968 43.5642C8.68091 43.5642 7.88191 43.2055 7.30646 42.63C6.73324 42.0547 6.37457 41.2557 6.37457 40.377C6.37457 39.4959 6.73102 38.699 7.30646 38.1213C7.88191 37.546 8.6788 37.1873 9.55968 37.1873C10.4361 37.1873 11.233 37.5461 11.8107 38.1213L11.8151 38.1259L11.8417 38.1523L11.8528 38.1612C12.4061 38.7345 12.7492 39.5137 12.7492 40.3722C12.7492 41.2509 12.3907 42.0521 11.8151 42.6255L11.731 42.7071C11.1599 43.2366 10.3986 43.5642 9.55968 43.5642ZM8.80935 41.1272C8.99968 41.3176 9.26757 41.4395 9.55968 41.4395C9.83413 41.4395 10.0865 41.3377 10.2724 41.1717L10.31 41.1296C10.5026 40.9371 10.6244 40.6691 10.6244 40.3772C10.6244 40.0829 10.507 39.8171 10.3189 39.6248L10.3145 39.6202C10.1241 39.4321 9.85624 39.3149 9.56191 39.3149C9.26968 39.3149 9.00191 39.4343 8.81157 39.627C8.61902 39.8195 8.49946 40.0851 8.49946 40.3775C8.49946 40.669 8.61902 40.9369 8.80935 41.1272Z" fill="#302F2F"/>
<path d="M45.6868 43.5619C44.8126 43.5619 44.0157 43.2033 43.4381 42.6279L43.4358 42.6257L43.4335 42.6279C42.8579 42.0523 42.4995 41.2533 42.4995 40.3748C42.4995 39.4981 42.8581 38.7015 43.4335 38.1261L43.4379 38.1216L43.4643 38.0951L43.4756 38.084C44.0488 37.5307 44.83 37.1876 45.6866 37.1876C46.5632 37.1876 47.36 37.5463 47.9377 38.1216L47.9421 38.1261L47.9686 38.1526L47.9798 38.1637C48.533 38.737 48.8761 39.5161 48.8761 40.3748C48.8761 41.2533 48.5175 42.0549 47.9421 42.6279L47.8579 42.7053C47.287 43.2343 46.5235 43.5619 45.6868 43.5619ZM44.932 41.1272C45.1223 41.3176 45.3902 41.4351 45.6846 41.4351C45.959 41.4351 46.2112 41.3333 46.3972 41.1673L46.4369 41.1252C46.6273 40.9349 46.7491 40.6671 46.7491 40.3748C46.7491 40.0806 46.6317 39.8149 46.4437 39.6225L46.4392 39.6179C46.2489 39.4299 45.9811 39.3126 45.6868 39.3126C45.3926 39.3126 45.1268 39.4299 44.9365 39.6179L44.932 39.6225C44.744 39.8128 44.6266 40.0806 44.6266 40.3748C44.6266 40.6671 44.7461 40.9349 44.9388 41.1252L44.932 41.1272Z" fill="#302F2F"/>
<path d="M45.4677 27.6276C45.4677 27.041 45.9434 26.5651 46.5301 26.5651C47.1164 26.5651 47.5925 27.041 47.5925 27.6276C47.5925 29.447 48.3296 31.096 49.5182 32.2868C50.7112 33.4753 52.3581 34.2125 54.1774 34.2125C54.764 34.2125 55.24 34.6882 55.24 35.2749C55.24 35.8616 54.7641 36.3375 54.1774 36.3375C51.7761 36.3375 49.5979 35.3613 48.0222 33.7853L48.0178 33.7809C46.4437 32.205 45.4677 30.0292 45.4677 27.6276Z" fill="#302F2F"/>
<path d="M7.64734 27.6276C7.64734 27.041 8.12323 26.5651 8.70979 26.5651C9.29634 26.5651 9.77223 27.041 9.77223 27.6276C9.77223 30.0269 8.79612 32.2027 7.22023 33.7808L7.21579 33.7875C5.63768 35.3656 3.4619 36.3396 1.06257 36.3396C0.476011 36.3396 0.00012207 35.8615 0.00012207 35.2771C0.00012207 34.6906 0.476011 34.2147 1.06257 34.2147C2.88423 34.2147 4.5309 33.4776 5.71957 32.2889L5.72401 32.2845C6.91246 31.0961 7.64734 29.447 7.64734 27.6276Z" fill="#302F2F"/>
<path d="M47.5924 53.1237C47.5924 53.7102 47.1166 54.1862 46.53 54.1862C45.9434 54.1862 45.4675 53.7081 45.4675 53.1237C45.4675 50.7243 46.4435 48.5486 48.0195 46.9704L48.024 46.9661C49.6021 45.388 51.7802 44.414 54.1794 44.414C54.7657 44.414 55.2419 44.8899 55.2419 45.4766C55.2419 46.0631 54.766 46.5389 54.1794 46.5389C52.3576 46.5389 50.711 47.2761 49.5224 48.4647L49.518 48.469C48.3295 49.6576 47.5924 51.3044 47.5924 53.1237Z" fill="#302F2F"/>
<path d="M9.77436 53.1237C9.77436 53.7102 9.29847 54.1862 8.71191 54.1862C8.12536 54.1862 7.64947 53.7081 7.64947 53.1237C7.64947 51.3045 6.91458 49.6553 5.72603 48.4669L5.72158 48.4626C4.53303 47.274 2.88625 46.5368 1.06458 46.5368C0.478025 46.5368 0.00213623 46.0609 0.00213623 45.4743C0.00213623 44.8878 0.478025 44.4119 1.06458 44.4119C3.46391 44.4119 5.6418 45.3859 7.2178 46.964L7.22225 46.9683C8.79825 48.5487 9.77436 50.7268 9.77436 53.1237Z" fill="#302F2F"/>
<path d="M27.6232 33.4711C26.8175 33.4711 26.0871 33.7987 25.5581 34.3277L25.5072 34.3741C25.007 34.8965 24.7015 35.6091 24.7015 36.3929C24.7015 37.2029 25.027 37.9331 25.5515 38.458L25.5537 38.4602L25.556 38.458C26.085 38.9846 26.8154 39.3122 27.6211 39.3122C28.4312 39.3122 29.1616 38.9867 29.6862 38.4624L29.6906 38.458C30.2152 37.9331 30.5405 37.2007 30.5405 36.3929C30.5405 35.587 30.213 34.8567 29.684 34.3277L29.6375 34.2767C29.1216 33.7788 28.409 33.4711 27.6232 33.4711ZM24.0552 32.8226C24.9693 31.9084 26.231 31.344 27.6232 31.344C28.98 31.344 30.2173 31.8841 31.127 32.7606L31.1934 32.8204C32.1075 33.7345 32.6697 34.9961 32.6697 36.3882C32.6697 37.7759 32.1053 39.0355 31.1934 39.9517L31.189 39.9562C30.2749 40.8705 29.0132 41.4349 27.6254 41.4349C26.231 41.4349 24.9715 40.8705 24.0574 39.9562L24.0596 39.9539C23.1455 39.0397 22.5789 37.7781 22.5789 36.388C22.5789 35.0312 23.1189 33.7962 23.9932 32.8887L24.0552 32.8226Z" fill="#302F2F"/>
<path d="M22.4394 43.781C22.2335 44.0156 22.0433 44.2638 21.8706 44.5247L21.8242 44.5889C21.6139 44.9142 21.428 45.2617 21.2731 45.6203C21.9836 46.4812 22.869 47.1964 23.8694 47.7076C24.9894 48.2831 26.2665 48.6062 27.6233 48.6062C28.9823 48.6062 30.2594 48.2806 31.3794 47.7076C32.3776 47.1961 33.263 46.4812 33.9735 45.6224C33.8075 45.2371 33.6061 44.8676 33.3782 44.5225H33.376C33.2011 44.261 33.0108 44.0133 32.8071 43.7788C32.1918 44.2105 31.5211 44.5689 30.8106 44.8367C29.8124 45.2131 28.7366 45.4189 27.6211 45.4189C26.5033 45.4189 25.4276 45.2129 24.4315 44.8367C23.7232 44.569 23.0525 44.2127 22.4394 43.781ZM20.102 43.345C20.527 42.7075 21.0426 42.1187 21.6249 41.5987C22.0166 41.2246 22.6409 41.2068 23.0548 41.5741C23.6723 42.1185 24.3939 42.557 25.1796 42.8558C25.93 43.139 26.7555 43.2961 27.621 43.2961C28.4864 43.2961 29.3098 43.1412 30.0624 42.8558C30.8393 42.5613 31.5564 42.1273 32.1695 41.5919C32.5613 41.2243 33.1788 41.2135 33.5905 41.5764C34.1838 42.101 34.7084 42.6987 35.1399 43.3448L35.1376 43.3471L35.1399 43.3515C35.5715 43.9978 35.9212 44.7085 36.1758 45.4587L36.1734 45.4609C36.2798 45.7754 36.2376 46.1317 36.0296 46.4172C35.0735 47.7473 33.8074 48.843 32.3399 49.5955C30.9189 50.3237 29.3142 50.7354 27.6186 50.7354C25.9276 50.7354 24.3206 50.3237 22.8996 49.5955C21.4322 48.843 20.1661 47.7471 19.2099 46.4172C19.0173 46.1492 18.9509 45.7975 19.0638 45.4632C19.3094 44.7348 19.6436 44.0466 20.0554 43.4201L20.102 43.345Z" fill="#302F2F"/>
</svg>
