<svg width="30" height="30" viewBox="0 0 30 30" fill="none" xmlns="http://www.w3.org/2000/svg">
<g clip-path="url(#clip0_25_51)">
<path d="M22.2829 1.97707C23.8047 1.97881 25.2637 2.58413 26.3398 3.66022C27.4159 4.73632 28.0212 6.19532 28.0229 7.71715V22.2829C28.0215 23.8048 27.4163 25.264 26.3402 26.3402C25.264 27.4163 23.8048 28.0215 22.2829 28.0229H7.71715C6.19532 28.0212 4.73632 27.4159 3.66022 26.3398C2.58413 25.2637 1.97881 23.8047 1.97707 22.2829V7.71715C1.97881 6.19532 2.58413 4.73632 3.66022 3.66022C4.73632 2.58413 6.19532 1.97881 7.71715 1.97707H22.2829ZM22.2829 0H7.71715C5.67054 0.000349459 3.70786 0.813516 2.26069 2.26069C0.813516 3.70786 0.000349459 5.67054 0 7.71715L0 22.2829C0 24.3296 0.813054 26.2925 2.2603 27.7397C3.70755 29.1869 5.67043 30 7.71715 30H22.2829C24.3296 30 26.2925 29.1869 27.7397 27.7397C29.1869 26.2925 30 24.3296 30 22.2829V7.71715C30 5.67043 29.1869 3.70755 27.7397 2.2603C26.2925 0.813054 24.3296 0 22.2829 0Z" fill="white"/>
<path d="M15.0007 10.199C15.9504 10.199 16.8787 10.4806 17.6684 11.0082C18.458 11.5359 19.0734 12.2858 19.4369 13.1631C19.8003 14.0405 19.8954 15.006 19.7101 15.9374C19.5248 16.8688 19.0675 17.7244 18.396 18.3959C17.7245 19.0674 16.8689 19.5248 15.9375 19.71C15.006 19.8953 14.0406 19.8002 13.1632 19.4368C12.2858 19.0734 11.5359 18.4579 11.0083 17.6683C10.4807 16.8787 10.1991 15.9503 10.1991 15.0007C10.2005 13.7276 10.7068 12.5071 11.607 11.6069C12.5072 10.7067 13.7277 10.2004 15.0007 10.199ZM15.0007 8.22195C13.66 8.22169 12.3492 8.61904 11.2343 9.36373C10.1194 10.1084 9.25035 11.167 8.73708 12.4056C8.22382 13.6443 8.08939 15.0073 8.3508 16.3223C8.61221 17.6373 9.25771 18.8453 10.2057 19.7934C11.1536 20.7416 12.3615 21.3873 13.6765 21.649C14.9914 21.9107 16.3545 21.7765 17.5932 21.2635C18.8319 20.7505 19.8907 19.8816 20.6356 18.7668C21.3805 17.6521 21.7781 16.3414 21.7781 15.0007C21.7778 13.2032 21.0636 11.4794 19.7927 10.2082C18.5219 8.9371 16.7982 8.22265 15.0007 8.22195Z" fill="white"/>
</g>
<defs>
<clipPath id="clip0_25_51">
<rect width="30" height="30" fill="white"/>
</clipPath>
</defs>
</svg>
