<svg width="48" height="48" viewBox="0 0 48 48" fill="none" xmlns="http://www.w3.org/2000/svg">
<path d="M17.2257 9.10835H30.7743V5.15456C30.7743 4.50599 31.3004 3.98044 31.9484 3.98044H37.205C37.853 3.98044 38.3786 4.50599 38.3786 5.15456V9.10835H41.3073C44.7055 9.10835 47.4813 11.8841 47.4813 15.2823V37.8456C47.4813 41.2438 44.7055 44.0196 41.3073 44.0196H6.69265C3.29445 44.0196 0.518738 41.2438 0.518738 37.8456V15.2823C0.518738 11.8841 3.29445 9.10835 6.69265 9.10835H9.62143V5.15456C9.62143 4.50599 10.147 3.98044 10.7955 3.98044H16.0516C16.7002 3.98044 17.2257 4.50599 17.2257 5.15456V9.10835V9.10835ZM7.0124 22.1399H10.2819V25.4094H7.0124V22.1399V22.1399ZM7.0124 32.7483H10.2819V36.0173H7.0124V32.7483V32.7483ZM31.5306 32.7483H34.8001V36.0173H31.5306V32.7483ZM23.3577 32.7483H26.6272V36.0173H23.3577V32.7483ZM15.1853 32.7483H18.4543V36.0173H15.1853V32.7483ZM7.0124 27.4441H10.2819V30.7136H7.0124V27.4441V27.4441ZM31.5306 27.4441H34.8001V30.7136H31.5306V27.4441ZM23.3577 27.4441H26.6272V30.7136H23.3577V27.4441ZM15.1853 27.4441H18.4543V30.7136H15.1853V27.4441ZM31.5306 22.1399H34.8001V25.4094H31.5306V22.1399ZM23.3577 22.1399H26.6272V25.4094H23.3577V22.1399ZM15.1853 22.1399H18.4543V25.4094H15.1853V22.1399ZM2.86698 17.1203H37.5888C39.1332 17.1203 39.1332 19.4685 37.5888 19.4685H2.86698V37.8456C2.86698 39.9473 4.59102 41.6713 6.69265 41.6713H41.3073C43.409 41.6713 45.133 39.9473 45.133 37.8456V15.2823C45.133 13.1806 43.409 11.4566 41.3073 11.4566H38.3786V13.3592C38.3786 14.0072 37.853 14.5333 37.205 14.5333H31.9484C31.3004 14.5333 30.7743 14.0072 30.7743 13.3592V11.4566H17.2257V13.3592C17.2257 14.0072 16.7002 14.5333 16.0516 14.5333H10.7955C10.147 14.5333 9.62143 14.0072 9.62143 13.3592V11.4566H6.69265C4.59102 11.4566 2.86698 13.1806 2.86698 15.2823V17.1203V17.1203ZM14.8775 6.32868H11.9697V12.1851H14.8775V6.32868V6.32868ZM36.0309 6.32868H33.1225V12.1851H36.0309V6.32868V6.32868Z" fill="#302F2F"/>
</svg>
