<svg width="30" height="30" viewBox="0 0 30 30" fill="none" xmlns="http://www.w3.org/2000/svg">
<g clip-path="url(#clip0_25_49)">
<path fill-rule="evenodd" clip-rule="evenodd" d="M0 15C0 6.71575 6.71575 0 15 0C23.2843 0 30 6.71575 30 15C30 23.2843 23.2843 30 15 30C6.71575 30 0 23.2843 0 15ZM15.7847 19.9226C15.7847 19.9226 16.0734 19.8911 16.2213 19.7351C16.3567 19.5923 16.352 19.3226 16.352 19.3226C16.352 19.3226 16.334 18.0636 16.9296 17.8777C17.5165 17.6949 18.2701 19.0952 19.0699 19.6337C19.674 20.0409 20.1326 19.9517 20.1326 19.9517L22.2697 19.9226C22.2697 19.9226 23.3872 19.8549 22.8574 18.9923C22.8136 18.9216 22.5483 18.354 21.2689 17.1879C19.9283 15.9673 20.1083 16.1647 21.7219 14.0531C22.7049 12.7671 23.0977 11.9821 22.9748 11.6464C22.8582 11.3253 22.1351 11.4106 22.1351 11.4106L19.7296 11.4252C19.7296 11.4252 19.5511 11.4014 19.4189 11.4789C19.2897 11.555 19.206 11.7324 19.206 11.7324C19.206 11.7324 18.8257 12.7272 18.3178 13.5737C17.2465 15.3589 16.8184 15.4534 16.6431 15.3428C16.2354 15.0839 16.3371 14.3043 16.3371 13.7504C16.3371 12.0198 16.6048 11.2984 15.8168 11.1117C15.5554 11.0496 15.3629 11.0088 14.6938 11.0019C13.8353 10.9935 13.1091 11.005 12.6974 11.2024C12.4236 11.3338 12.2123 11.6272 12.3414 11.6441C12.5003 11.6648 12.8603 11.7394 13.0512 11.9944C13.2977 12.3239 13.2891 13.0629 13.2891 13.0629C13.2891 13.0629 13.4307 15.1001 12.9581 15.3527C12.6341 15.5264 12.1896 15.1722 11.2341 13.5522C10.745 12.7226 10.3756 11.8054 10.3756 11.8054C10.3756 11.8054 10.3044 11.6341 10.1768 11.5419C10.0227 11.4306 9.80744 11.396 9.80744 11.396L7.52163 11.4106C7.52163 11.4106 7.17806 11.4198 7.05206 11.5665C6.94019 11.6963 7.04344 11.9659 7.04344 11.9659C7.04344 11.9659 8.83319 16.0764 10.86 18.1481C12.7186 20.047 14.8284 19.9226 14.8284 19.9226H15.7847Z" fill="#FFF5F5"/>
</g>
<defs>
<clipPath id="clip0_25_49">
<rect width="30" height="30" fill="white"/>
</clipPath>
</defs>
</svg>
